<mxfile host="app.diagrams.net" modified="2023-11-07T08:47:35.991Z" agent="Mozilla/5.0 (Windows NT 10.0; Win64; x64) AppleWebKit/537.36 (KHTML, like Gecko) Chrome/119.0.0.0 Safari/537.36" etag="-dSdnAgr2NGOn7w2SnGJ" version="22.0.8" type="device">
  <diagram name="Page-1" id="sOwsikZQiYveg3udqnzt">
    <mxGraphModel dx="880" dy="446" grid="1" gridSize="10" guides="1" tooltips="1" connect="1" arrows="1" fold="1" page="1" pageScale="1" pageWidth="850" pageHeight="1100" math="0" shadow="0">
      <root>
        <mxCell id="0" />
        <mxCell id="1" parent="0" />
        <mxCell id="9kOTGoKsWilB7riX7upR-1" value="gymClasses" style="whiteSpace=wrap;html=1;aspect=fixed;" vertex="1" parent="1">
          <mxGeometry x="380" y="190" width="80" height="80" as="geometry" />
        </mxCell>
        <mxCell id="9kOTGoKsWilB7riX7upR-2" value="" style="endArrow=classic;html=1;rounded=0;exitX=0.5;exitY=1;exitDx=0;exitDy=0;" edge="1" parent="1" source="9kOTGoKsWilB7riX7upR-1">
          <mxGeometry width="50" height="50" relative="1" as="geometry">
            <mxPoint x="400" y="360" as="sourcePoint" />
            <mxPoint x="420" y="320" as="targetPoint" />
          </mxGeometry>
        </mxCell>
        <mxCell id="9kOTGoKsWilB7riX7upR-5" style="edgeStyle=orthogonalEdgeStyle;rounded=0;orthogonalLoop=1;jettySize=auto;html=1;entryX=0.5;entryY=0;entryDx=0;entryDy=0;" edge="1" parent="1" source="9kOTGoKsWilB7riX7upR-3" target="9kOTGoKsWilB7riX7upR-4">
          <mxGeometry relative="1" as="geometry" />
        </mxCell>
        <mxCell id="9kOTGoKsWilB7riX7upR-3" value="admin assign class to user" style="whiteSpace=wrap;html=1;aspect=fixed;" vertex="1" parent="1">
          <mxGeometry x="380" y="320" width="80" height="80" as="geometry" />
        </mxCell>
        <mxCell id="9kOTGoKsWilB7riX7upR-4" value="Fee Issue to associated user who attend class" style="whiteSpace=wrap;html=1;aspect=fixed;" vertex="1" parent="1">
          <mxGeometry x="380" y="480" width="80" height="80" as="geometry" />
        </mxCell>
        <mxCell id="9kOTGoKsWilB7riX7upR-6" value="" style="endArrow=classic;html=1;rounded=0;exitX=1;exitY=0.5;exitDx=0;exitDy=0;" edge="1" parent="1" source="9kOTGoKsWilB7riX7upR-4">
          <mxGeometry width="50" height="50" relative="1" as="geometry">
            <mxPoint x="490" y="550" as="sourcePoint" />
            <mxPoint x="540" y="520" as="targetPoint" />
          </mxGeometry>
        </mxCell>
        <mxCell id="9kOTGoKsWilB7riX7upR-7" value="Store Fee status and detail in table" style="whiteSpace=wrap;html=1;aspect=fixed;" vertex="1" parent="1">
          <mxGeometry x="540" y="480" width="80" height="80" as="geometry" />
        </mxCell>
      </root>
    </mxGraphModel>
  </diagram>
</mxfile>
